<svg width="138" height="138" viewBox="0 0 138 138" fill="none" xmlns="http://www.w3.org/2000/svg">
<path d="M28.8814 48.919L107.75 21.2737C107.827 21.2514 107.905 21.2298 107.982 21.2182C108.711 21.1412 112.155 21.0419 108.667 26.5395C104.781 32.6787 81.1122 75.3363 81.1122 75.3363C81.1122 75.3363 77.8331 81.3969 72.17 77.8207C69.2335 75.9664 66.2965 74.1113 63.25 72.4663L52.8823 66.8909C52.2423 66.549 52.1646 65.6434 52.7391 65.2021L100.089 28.5927L42.5369 60.3879C42.2281 60.5535 41.8523 60.5535 41.5543 60.3879L29.0903 53.3885C28.991 53.3331 28.914 53.2669 28.8362 53.1898C28.3949 52.7039 26.9818 50.9042 28.4611 49.2046C28.5713 49.0721 28.7253 48.972 28.8801 48.9174L28.8814 48.919Z" fill="white"/>
<path d="M48.8402 69.9384L61.1939 76.2978C61.8231 76.6182 61.934 77.4684 61.4149 77.9427L49.4362 88.9165C48.7962 89.5018 47.7581 89.0597 47.7358 88.188L47.3608 70.854C47.35 70.0924 48.1563 69.5849 48.8401 69.9384H48.8402Z" fill="white"/>
</svg>
